<svg id="Calque_2" data-name="Calque 2" xmlns="http://www.w3.org/2000/svg" viewBox="0 0 472.19 702.4"><defs><style>.cls-1,.cls-4{fill:#ffa466;}.cls-2,.cls-6{fill:#ff820f;}.cls-3{fill:#ffe8d7;}.cls-3,.cls-4,.cls-5,.cls-6,.cls-7{stroke:#ff820f;stroke-miterlimit:10;stroke-width:3px;}.cls-5{fill:none;}.cls-7{fill:#ffd2b3;}</style></defs><title>Test moi</title><g id="Cheveux"><path class="cls-1" d="M514.5,221.5c28-44,72-20,90,0s8,52,29,72,49.1,13.5,67.55,48.25,17.51,74.35,6,108.05-52.57,79.51-46,148.6,16.52,135.1-8.48,157.1-23,21-23,21H289.08S256,703.65,267.5,665.5c16.84-55.84,30.83-56.18,22-113-2.61-16.78-8.23-55.45-17-70-5.29-8.78-18-43-23-66-7.88-36.26-2-72,19-95,9.26-10.14,44.08-30.2,56-37,31.66-18.07,38.58-13.06,65.55-37.6,17.19-15.64,26.05-40.09,46.25-51.59,14-8,31.86-8.09,46.72-1.76s24,13.63,31.48,27.95" transform="translate(-244.67 -187.59)"/><path class="cls-2" d="M515.8,222.26c6.9-10.71,16.5-19.9,29.19-22.95,10-2.38,20.36-.67,29.74,3.1A79.17,79.17,0,0,1,599,218.05a46.37,46.37,0,0,1,10,12.65c2.86,5.57,4.43,11.69,5.68,17.79,2.5,12.16,3.74,24.92,9.93,35.93,5.72,10.18,15.31,17,25.74,21.82,9.73,4.46,20.08,7.57,29.12,13.43,12.56,8.14,20.37,21,25.77,34.65,11.5,29.17,10.91,61.82,1.55,91.48-6.28,19.89-18.11,37.65-27.13,56.33-11.26,23.31-19.42,48.07-20.68,74.09-.78,16.1,1.48,32.15,3.08,48.14,1.64,16.32,3.28,32.66,4.26,49,.81,13.67,1.25,27.47.07,41.14-.9,10.49-2.69,21.52-7.83,30.85-2.49,4.53-5.77,7.88-9.62,11.27-4.67,4.12-9.33,8.25-13.94,12.44-1.84,1.68-3.7,3.34-5.46,5.1-.5.5-1.33,1.15-1.5,1.88a1.54,1.54,0,0,0,2.24,1.72c1.38-.67.65-2.8-.76-2.8H294.26a24.38,24.38,0,0,0-4.6,0,3.74,3.74,0,0,1-.58,0l1.29.74a320.24,320.24,0,0,1-14.95-40.84,218.33,218.33,0,0,1-8-36.68c-1.34-11.4-1.38-22.91,2-34,4.26-13.89,9.58-27.32,15-40.77,3.83-9.46,7.24-19,8.53-29.17,1.76-13.86.13-28-2-41.68-1.84-12-3.72-24.07-6.19-36-2.36-11.41-4.79-23.77-10.54-34-5.39-9.66-9.18-20.19-12.82-30.61-10.42-29.82-18.42-61.48-10.69-93,3.4-13.85,9.92-28.24,20.45-38.17,8.41-7.93,18.84-14,28.62-20.07s19.42-11.79,29.37-17.22c10.5-5.74,21.58-9.94,32.39-15,11.32-5.3,21.36-12.94,30.42-21.49,10.76-10.16,18-23.26,27.27-34.63,10.16-12.43,23.07-21.27,39.57-21.89,15-.56,31,5.5,42.15,15.5a56.59,56.59,0,0,1,12.17,16.18c.91,1.71,3.5.19,2.6-1.52-6.61-12.53-16.37-21.35-29.21-27.24-14.38-6.59-30.92-8.22-45.77-2.05-13.8,5.74-23.12,17.63-31.58,29.44-4.43,6.19-8.74,12.48-13.74,18.23A117.09,117.09,0,0,1,378.11,255c-8.88,6.78-18.59,11.32-28.81,15.64a293.24,293.24,0,0,0-32.77,16.68c-11,6.41-22,13-32.6,20.13a139.57,139.57,0,0,0-13.15,9.78A62.54,62.54,0,0,0,259.33,331c-17.43,27.21-17.44,62-9.74,92.36a361,361,0,0,0,13.8,42.44c1.93,4.95,3.93,9.91,6.31,14.66a105.79,105.79,0,0,1,5.89,12.63c4.44,12.77,6.93,26.26,9.22,39.55,2.35,13.62,4.78,27.37,5.64,41.17.73,11.63-.07,23.12-3.51,34.29-3.49,11.32-8.61,22.1-12.8,33.16-4.85,12.81-10,25.94-10.51,39.77-.45,12.27,1.49,24.61,4.16,36.55a324.32,324.32,0,0,0,18.62,56.51c.45,1,.9,2.1,1.37,3.14a1.48,1.48,0,0,0,1.3.75H624.31a23.67,23.67,0,0,0,4.61,0,2.81,2.81,0,0,1,.58,0l-.76-2.8c1.29-.61,2.81,1.82,1.89,2.19.21-.08.52-.58.69-.74,1.64-1.63,3.34-3.2,5-4.76,4.32-3.95,8.71-7.84,13.1-11.72,3.95-3.5,7.7-6.8,10.52-11.32,5.27-8.43,7.49-18.51,8.74-28.26,1.72-13.42,1.55-27.05.92-40.54-.73-15.77-2.22-31.49-3.76-47.19-1.64-16.6-4.2-33.36-4.11-50.07.16-27.26,8.14-53.36,19.8-77.79,8.72-18.27,20.27-35.59,26.89-54.8,9.92-28.75,11.6-60.92,2-90-4.52-13.78-11.22-27.74-22.21-37.54-8.17-7.27-18.1-11.46-28.13-15.49-10.75-4.33-21.61-9.29-29.11-18.49-8.27-10.15-10.24-23.44-12.54-35.91-2.2-12-5.16-23.9-13.65-33.08a83.08,83.08,0,0,0-22.1-16.83c-8.62-4.54-18.23-7.62-28-7.65a44.51,44.51,0,0,0-29,10.82,65.51,65.51,0,0,0-12.51,14.71c-1,1.63,1.55,3.14,2.6,1.52Z" transform="translate(-244.67 -187.59)"/></g><path class="cls-3" d="M450.24,528.07h0c6.28,44.43,3.7,45.69-4,60.06s-70.74,23-86.71,29.37c-30,12-49,44-55,66s-17,93-14,127,17,67,46,69,99.89,10.5,146,8.75S604.5,884.5,619.5,873.5s25-83,22-114-3-125-37-146c-34.17-21.1-72-9-88-26s-8-56-8-56l-8-.47" transform="translate(-244.67 -187.59)"/><path id="Oreille_gauche" data-name="Oreille gauche" class="cls-3" d="M349.63,364.43a34.73,34.73,0,0,0-12.08-7.22c-19-6.63-40.14,4.28-47.13,24.36s2.77,41.73,21.8,48.36A35.32,35.32,0,0,0,338,428.88" transform="translate(-244.67 -187.59)"/><path id="Oreille_droite" data-name="Oreille droite" class="cls-3" d="M634.22,432.66A34.73,34.73,0,0,0,648,435.5c20.16,0,36.5-17.24,36.5-38.5s-16.34-38.5-36.5-38.5A35.33,35.33,0,0,0,624,368" transform="translate(-244.67 -187.59)"/><path id="Tête" class="cls-3" d="M633.76,404.5C645.81,478.08,568,540,486.91,540S329.06,478.29,340.06,404.5C351.17,329.92,405.8,269,486.91,269S621.72,331,633.76,404.5Z" transform="translate(-244.67 -187.59)"/><path id="Joue_gauche" data-name="Joue gauche" class="cls-4" d="M347.5,428.5c6-14,27-21,34-21,18.78,0,35.91,9.56,34,21-2,12-15.22,21-34,21S340.27,445.37,347.5,428.5Z" transform="translate(-244.67 -187.59)"/><path id="Joue_droite" data-name="Joue droite" class="cls-4" d="M631.06,422.51c-6-14-27-21-34-21-18.78,0-35.91,9.56-34,21,2,12,15.22,21,34,21S638.29,439.38,631.06,422.51Z" transform="translate(-244.67 -187.59)"/><ellipse id="Lunette_gauche" data-name="Lunette gauche" class="cls-5" cx="174.33" cy="195.41" rx="54.5" ry="46.5"/><ellipse id="Lunette_droite" data-name="Lunette droite" class="cls-5" cx="304.33" cy="190.41" rx="54.5" ry="46.5"/><path id="Liaison_lunette" data-name="Liaison lunette" class="cls-5" d="M473.5,382.5c15-13,21.49,1.73,21.49,1.73" transform="translate(-244.67 -187.59)"/><ellipse id="Oeil_gauche" data-name="Oeil gauche" class="cls-6" cx="174.83" cy="190.41" rx="9" ry="15.5"/><ellipse id="Oeil_droit" data-name="Oeil droit" class="cls-6" cx="307.83" cy="190.41" rx="9" ry="15.5"/><path id="Nez" class="cls-5" d="M473.58,444.06a17.5,17.5,0,1,1,27.36-18.46" transform="translate(-244.67 -187.59)"/><path id="Bouche" class="cls-5" d="M506.85,477c-1.91,6.66-8,12.69-14.54,14.85-12.34,4.05-22.81,2.14-31-2.15-9.44-5-13.7-15.8-11-23" transform="translate(-244.67 -187.59)"/><path class="cls-7" d="M407.5,737c.71,4.82-.21,12.18.5,17,6.64,45.39,14.9,88.25,21.54,133.64,36.65.12,70.81-1.76,107.46-1.64,5.1-45.32,14.9-87.68,20-133,.56-5-1.06-11-.5-16H408" transform="translate(-244.67 -187.59)"/><g id="Plante"><ellipse class="cls-7" cx="417" cy="567" rx="31.5" ry="20.5" transform="translate(-475.9 653.59) rotate(-76.59)"/><ellipse class="cls-7" cx="451.05" cy="630" rx="31.5" ry="23.96" transform="translate(-552.67 286.88) rotate(-42.82)"/><ellipse class="cls-7" cx="383.39" cy="651.72" rx="19.93" ry="26.5" transform="translate(-564.33 742.44) rotate(-81.13)"/><ellipse class="cls-5" cx="412.7" cy="695.47" rx="26.5" ry="19.93" transform="translate(-313.05 -142.17) rotate(-5.82)"/><ellipse class="cls-7" cx="412.7" cy="695.47" rx="26.5" ry="19.93" transform="translate(-313.05 -142.17) rotate(-5.82)"/><ellipse class="cls-7" cx="469.7" cy="675.47" rx="26.5" ry="19.93" transform="translate(-596.38 441.4) rotate(-51.95)"/><ellipse class="cls-7" cx="556.57" cy="600.77" rx="26.5" ry="38.32" transform="translate(-302.71 -128.08) rotate(-5.82)"/><ellipse class="cls-7" cx="516.06" cy="648.15" rx="20.56" ry="29.34" transform="translate(-542.56 305.94) rotate(-40.72)"/><ellipse class="cls-7" cx="590.24" cy="663.17" rx="33.16" ry="24.21" transform="translate(-378.28 -38.45) rotate(-12.95)"/><ellipse class="cls-7" cx="554.35" cy="707.7" rx="20.7" ry="26.84" transform="translate(-561.91 740.27) rotate(-66.1)"/><path class="cls-5" d="M422.5,652.5c7-11,19-14,19-14" transform="translate(-244.67 -187.59)"/><path class="cls-5" d="M446,693.3a25.07,25.07,0,0,1,16.49-12.8" transform="translate(-244.67 -187.59)"/><path class="cls-5" d="M446,693.3c-12.51-3.8-19.51,2.2-19.51,2.2" transform="translate(-244.67 -187.59)"/><path class="cls-5" d="M417.5,648.5c-25-6-34,0-34,0" transform="translate(-244.67 -187.59)"/><path class="cls-5" d="M548.37,664.29c12.13-3.79,24.13.21,24.13.21" transform="translate(-244.67 -187.59)"/><path class="cls-5" d="M524.86,692c17.64,1.46,24.64,11.46,24.64,11.46" transform="translate(-244.67 -187.59)"/><path class="cls-5" d="M540,676.72c-3.5-17.22-15.5-21.22-15.5-21.22" transform="translate(-244.67 -187.59)"/><path class="cls-5" d="M443,737.45C464,685,411,655,407,623s10-56,10-56" transform="translate(-244.67 -187.59)"/><path class="cls-5" d="M501.79,737.45c-3.29-32,16.71-36,36.71-59s23-54,20-65" transform="translate(-244.67 -187.59)"/></g></svg>